<svg xmlns="http://www.w3.org/2000/svg" width="1000" height="763" fill="none" viewBox="0 0 1000 763">
    <path fill="#F80"
          d="M499.596 762.751C188.458 452.12 0 264.409 0 264.409L264.326 0h471.953L1000 263.804 499.596 762.751Zm371.066-498.745L701.17 90.828H299.435L128.531 264.61s369.653 371.183 371.873 371.183c1.008 0 268.967-270.667 370.258-371.788Z"/>
    <path fill="#F80"
          d="M427.968 454.084c-1.413-2.624-3.229-11.505-3.834-19.78s-2.219-17.358-3.632-20.184c-1.412-3.028-8.071-9.285-14.73-14.129-26.432-19.174-41.565-33.101-55.084-50.46-4.843-6.055-9.484-12.11-10.493-13.321-1.614-2.018-10.492-18.771-16.545-31.487-1.009-1.816-3.632-10.899-6.255-20.184-4.036-14.734-4.641-21.395-4.641-58.129 0-34.515.605-44.001 4.035-57.121 7.063-28.459 20.783-37.744 32.688-22.202 6.255 8.073 6.659 12.514 3.632 45.615-1.816 19.982.807 40.368 8.273 63.983 10.29 33.102 14.528 42.387 22.397 49.653 6.053 5.651 5.65 5.45 10.896 2.826 5.246-3.028 4.842-7.872-2.018-22.606-10.694-22.606-17.756-44.809-20.581-64.185-2.421-17.157-1.009-23.212 6.255-26.239 8.475-3.432 16.546 1.412 22.195 13.523 2.422 5.45 5.246 11.505 6.255 13.725 1.009 2.22 2.623 6.862 3.834 10.092 5.852 18.973 13.317 33.505 22.195 43.395 3.431 3.835 9.686 11.303 13.721 16.753 4.036 5.248 8.055 9.417 8.243 9.604.588.588 1.176 1.765 2.249 2.91.692 1.208 2.457 4.15 2.825 4.44.22.298 21.389 33.909 25.424 48.038 5.448 18.771 7.062 94.663 2.018 97.892-1.614 1.009-15.133 2.019-29.661 2.019-25.626 0-26.836-.202-29.661-4.441Zm143.883.067c1.412-2.624 3.228-11.505 3.834-19.781.605-8.275 2.219-17.358 3.632-20.183 1.412-3.028 8.071-9.285 14.729-14.129 26.433-19.175 41.566-33.102 55.085-50.46 4.843-6.055 9.484-12.11 10.492-13.321 1.615-2.019 10.493-18.772 16.546-31.487 1.009-1.817 3.632-10.9 6.255-20.184 4.036-14.735 4.641-21.395 4.641-58.13 0-34.515-.605-44.001-4.036-57.121-7.062-28.459-20.782-37.743-32.687-22.202-6.255 8.074-6.659 12.514-3.632 45.616 1.816 19.982-.807 40.368-8.273 63.983-10.291 33.102-14.528 42.386-22.397 49.652-6.053 5.652-5.65 5.45-10.896 2.826-5.246-3.028-4.843-7.872 2.018-22.606 10.694-22.606 17.756-44.808 20.581-64.185 2.421-17.156 1.009-23.211-6.255-26.239-8.475-3.431-16.546 1.413-22.195 13.523-2.422 5.45-5.247 11.505-6.256 13.725-1.008 2.221-2.623 6.863-3.833 10.092-5.852 18.973-13.317 33.506-22.196 43.396-3.43 3.835-9.685 11.303-13.72 16.752-4.036 5.248-8.056 9.417-8.243 9.605-.588.588-1.176 1.764-2.25 2.909-.691 1.209-2.456 4.15-2.824 4.441-.221.298-21.389 33.909-25.424 48.038-5.448 18.771-7.062 94.662-2.018 97.892 1.614 1.009 15.133 2.018 29.661 2.018 25.626 0 26.836-.202 29.661-4.44Z"/>
</svg>
